<?xml version="1.0" encoding="UTF-8"?>
<svg width="153px" height="40px" viewBox="0 0 153 40" version="1.1" xmlns="http://www.w3.org/2000/svg" xmlns:xlink="http://www.w3.org/1999/xlink">
    <!-- Generator: Sketch 57.1 (83088) - https://sketch.com -->
    <title>logotype</title>
    <desc>Created with Sketch.</desc>
    <defs>
        <radialGradient cx="20.8026386%" cy="65.1207743%" fx="20.8026386%" fy="65.1207743%" r="163.589977%" id="radialGradient-1">
            <stop stop-color="#00F8D2" offset="0%"></stop>
            <stop stop-color="#00D3F8" offset="100%"></stop>
        </radialGradient>
    </defs>
    <g id="Products" stroke="none" stroke-width="1" fill="none" fill-rule="evenodd">
        <g id="products" transform="translate(-343.000000, -698.000000)" fill-rule="nonzero">
            <g id="fold" transform="translate(343.000000, 133.000000)">
                <g id="prods" transform="translate(0.000000, 565.000000)">
                    <g id="logotype">
                        <path d="M65.9136691,14.9784173 C65.5683453,14.0719424 65.0647482,13.2805755 64.4028777,12.647482 C63.7410072,12.0143885 62.9352518,11.5107914 61.942446,11.1654676 C60.9496403,10.8201439 59.8129496,10.647482 58.4748201,10.647482 L51.8273381,10.647482 C51.6115108,10.647482 51.4388489,10.7194245 51.3093525,10.8776978 C51.1798561,11.0071942 51.0935252,11.1798561 51.0935252,11.381295 L51.0935252,28.6618705 C51.0935252,28.8489209 51.1654676,29.0215827 51.323741,29.1366906 C51.4532374,29.2661871 51.6402878,29.352518 51.8273381,29.352518 L58.6330935,29.352518 C59.9280576,29.352518 61.0647482,29.1798561 62.028777,28.8345324 C62.9784173,28.4892086 63.7985612,27.9856115 64.4316547,27.352518 C65.0647482,26.7194245 65.5827338,25.9280576 65.9280576,25.0215827 C66.2733813,24.1151079 66.4892086,23.0935252 66.5611511,21.9856115 C66.6330935,20.6618705 66.6330935,19.352518 66.5611511,18.0143885 C66.4892086,16.9064748 66.2733813,15.8848921 65.9136691,14.9784173 Z M62.9064748,22 C62.8920863,22.5611511 62.7769784,23.0935252 62.5755396,23.5971223 C62.4028777,24.1007194 62.1294964,24.5179856 61.7553957,24.8920863 C61.381295,25.2517986 60.9352518,25.5251799 60.4028777,25.7410072 C59.8705036,25.9568345 59.2230216,26.0431655 58.4892086,26.0431655 L54.7194245,26.0431655 L54.7194245,14 L58.3309353,14 C59.1079137,14 59.7697842,14.1007194 60.3309353,14.3021583 C60.8920863,14.4892086 61.352518,14.7769784 61.7266187,15.1510791 C62.1007194,15.5107914 62.3597122,15.9568345 62.5611511,16.4460432 C62.7338129,16.9496403 62.8489209,17.4676259 62.8920863,18.0431655 C62.9784173,19.352518 62.9784173,20.676259 62.9064748,22 Z M142.086331,17.2805755 C141.510791,16.676259 140.805755,16.1726619 140,15.8129496 C139.179856,15.4388489 138.273381,15.2517986 137.266187,15.2517986 C136.258993,15.2517986 135.352518,15.4388489 134.532374,15.8129496 C133.71223,16.1870504 133.021583,16.705036 132.446043,17.3669065 C131.870504,18.028777 131.438849,18.8057554 131.122302,19.6834532 C130.805755,20.5611511 130.661871,21.5251799 130.661871,22.5323741 C130.661871,23.5971223 130.820144,24.5899281 131.093525,25.4676259 C131.410072,26.3597122 131.827338,27.1366906 132.417266,27.7697842 C132.992806,28.4028777 133.697842,28.9064748 134.503597,29.2661871 C135.323741,29.6115108 136.230216,29.7841727 137.23741,29.7841727 C138.244604,29.7841727 139.136691,29.6546763 139.899281,29.381295 C140.661871,29.1079137 141.294964,28.7769784 141.81295,28.4172662 C142.330935,28.028777 142.748201,27.6402878 142.992806,27.2517986 C143.266187,26.8633094 143.395683,26.5323741 143.42446,26.2877698 C143.438849,26.1007194 143.381295,25.9136691 143.23741,25.7841727 C143.079137,25.6546763 142.906475,25.5683453 142.719424,25.5683453 L140.561151,25.5683453 C140.345324,25.5683453 140.172662,25.5827338 140.057554,25.6402878 C139.942446,25.6978417 139.769784,25.7985612 139.568345,25.9280576 C139.338129,26.1007194 139.021583,26.2589928 138.676259,26.3741007 C138.330935,26.4892086 137.856115,26.5467626 137.280576,26.5467626 C136.877698,26.5467626 136.503597,26.5035971 136.115108,26.3884892 C135.741007,26.2733813 135.42446,26.1151079 135.122302,25.8992806 C134.848921,25.6834532 134.618705,25.4100719 134.446043,25.1079137 C134.273381,24.8057554 134.18705,24.4316547 134.18705,24.028777 L143.165468,24.028777 C143.352518,24.028777 143.539568,23.9568345 143.669065,23.8129496 C143.798561,23.6834532 143.884892,23.4964029 143.884892,23.3093525 L143.884892,22.0863309 C143.884892,21.1510791 143.726619,20.2877698 143.42446,19.4532374 C143.122302,18.618705 142.661871,17.8992806 142.086331,17.2805755 Z M134.158273,20.9784173 C134.201439,20.705036 134.273381,20.4172662 134.417266,20.1294964 C134.546763,19.8129496 134.748201,19.5683453 134.992806,19.323741 C135.251799,19.0791367 135.553957,18.8776978 135.928058,18.7194245 C136.302158,18.5611511 136.748201,18.4892086 137.266187,18.4892086 C137.827338,18.4892086 138.316547,18.5611511 138.661871,18.7194245 C139.035971,18.8776978 139.323741,19.0935252 139.553957,19.323741 C139.784173,19.5683453 139.942446,19.8417266 140.043165,20.1294964 C140.158273,20.4460432 140.215827,20.705036 140.258993,20.9784173 L134.158273,20.9784173 Z M72.618705,10.8633094 C72.7482014,10.9928058 72.8345324,11.1654676 72.8345324,11.3669065 L72.8345324,13.4388489 C72.8345324,13.6258993 72.7625899,13.7985612 72.618705,13.942446 C72.4748201,14.0863309 72.3021583,14.1582734 72.1151079,14.1582734 L69.7841727,14.1582734 C69.5971223,14.1582734 69.4100719,14.0863309 69.2805755,13.942446 C69.1510791,13.7985612 69.0647482,13.6402878 69.0647482,13.4388489 L69.0647482,11.381295 C69.0647482,11.1942446 69.1366906,11.0215827 69.2805755,10.8776978 C69.4100719,10.7194245 69.5971223,10.647482 69.7841727,10.647482 L72.1151079,10.647482 C72.3021583,10.647482 72.4892086,10.7194245 72.618705,10.8633094 Z M71.971223,15.4820144 L69.9136691,15.4820144 C69.7266187,15.4820144 69.5395683,15.5539568 69.4100719,15.6978417 C69.2805755,15.8417266 69.1942446,16 69.1942446,16.2014388 L69.1942446,28.6618705 C69.1942446,28.8489209 69.2661871,29.0215827 69.4100719,29.1654676 C69.5539568,29.3093525 69.7266187,29.381295 69.9136691,29.381295 L71.971223,29.381295 C72.1582734,29.381295 72.3453237,29.3093525 72.4748201,29.1654676 C72.6043165,29.0215827 72.6906475,28.8633094 72.6906475,28.6618705 L72.6906475,16.2014388 C72.6906475,16.0143885 72.618705,15.8417266 72.4748201,15.6978417 C72.3309353,15.5539568 72.1726619,15.4820144 71.971223,15.4820144 Z M95.1079137,10.647482 L95.1079137,10.6618705 L92.8057554,10.6618705 C92.618705,10.6618705 92.4460432,10.7338129 92.3021583,10.8776978 C92.1582734,11.0215827 92.0863309,11.1798561 92.0863309,11.381295 L92.0863309,13.4388489 C92.0863309,13.6258993 92.1582734,13.7985612 92.3021583,13.942446 C92.4460432,14.0863309 92.6043165,14.1582734 92.8057554,14.1582734 L95.1079137,14.1582734 C95.294964,14.1582734 95.4676259,14.0863309 95.6115108,13.942446 C95.7410072,13.8129496 95.8273381,13.6402878 95.8273381,13.4388489 L95.8273381,11.352518 C95.8273381,11.1654676 95.7553957,10.9928058 95.6115108,10.8489209 C95.4820144,10.7194245 95.3093525,10.647482 95.1079137,10.647482 Z M94.9784173,15.4676259 L92.9352518,15.4676259 C92.7482014,15.4676259 92.5755396,15.5395683 92.4316547,15.6834532 C92.3021583,15.8129496 92.2158273,15.9856115 92.2158273,16.1870504 L92.2158273,28.647482 C92.2158273,28.8345324 92.2877698,29.0071942 92.4316547,29.1510791 C92.5611511,29.2805755 92.7338129,29.3669065 92.9352518,29.3669065 L94.9784173,29.3669065 C95.1654676,29.3669065 95.3381295,29.294964 95.4820144,29.1510791 C95.6258993,29.0071942 95.6978417,28.8489209 95.6978417,28.647482 L95.6978417,16.1870504 C95.6978417,16 95.6258993,15.8273381 95.4820144,15.6834532 C95.3381295,15.5395683 95.1654676,15.4676259 94.9784173,15.4676259 Z M107.194245,26.1582734 L106.47482,26.1582734 C105.669065,26.1582734 105.107914,25.9856115 104.820144,25.6546763 C104.532374,25.323741 104.374101,24.8920863 104.374101,24.3309353 L104.374101,18.647482 L107.136691,18.647482 C107.323741,18.647482 107.496403,18.5755396 107.640288,18.4316547 C107.784173,18.2877698 107.856115,18.1294964 107.856115,17.9280576 L107.856115,16.1438849 C107.856115,15.9568345 107.784173,15.7841727 107.640288,15.6402878 C107.496403,15.4964029 107.338129,15.4244604 107.136691,15.4244604 L104.374101,15.4244604 L104.374101,11.352518 C104.374101,11.1654676 104.302158,10.9928058 104.158273,10.8489209 C104.014388,10.705036 103.856115,10.6330935 103.654676,10.6330935 L101.611511,10.6330935 C101.42446,10.6330935 101.251799,10.705036 101.107914,10.8489209 C100.964029,10.9928058 100.892086,11.1510791 100.892086,11.352518 L100.892086,15.4532374 L99.1366906,15.4532374 C98.9496403,15.4532374 98.7769784,15.5251799 98.6330935,15.6690647 C98.4892086,15.8129496 98.4172662,15.971223 98.4172662,16.1726619 L98.4172662,17.942446 C98.4172662,18.1294964 98.4892086,18.3021583 98.6330935,18.4460432 C98.7769784,18.5899281 98.9352518,18.6618705 99.1366906,18.6618705 L100.906475,18.6618705 L100.906475,24.4172662 C100.906475,26.0863309 101.352518,27.3381295 102.258993,28.1438849 C103.165468,28.9496403 104.460432,29.352518 106.143885,29.352518 L107.208633,29.352518 C107.395683,29.352518 107.568345,29.2805755 107.71223,29.1366906 C107.856115,28.9928058 107.928058,28.8345324 107.928058,28.6330935 L107.928058,26.8633094 C107.928058,26.676259 107.856115,26.5035971 107.71223,26.3597122 C107.568345,26.2158273 107.395683,26.1582734 107.194245,26.1582734 Z M113.841727,15.4676259 L111.798561,15.4676259 C111.611511,15.4676259 111.438849,15.5395683 111.294964,15.6834532 C111.165468,15.8129496 111.079137,15.9856115 111.079137,16.1870504 L111.079137,28.647482 C111.079137,28.8345324 111.151079,29.0071942 111.294964,29.1510791 C111.42446,29.2805755 111.597122,29.3669065 111.798561,29.3669065 L113.841727,29.3669065 C114.028777,29.3669065 114.201439,29.294964 114.345324,29.1510791 C114.47482,29.0215827 114.561151,28.8489209 114.561151,28.647482 L114.561151,16.1870504 C114.561151,16 114.489209,15.8273381 114.345324,15.6834532 C114.215827,15.5539568 114.043165,15.4676259 113.841727,15.4676259 Z M113.956835,10.647482 L113.956835,10.6618705 L111.654676,10.6618705 C111.467626,10.6618705 111.294964,10.7338129 111.151079,10.8776978 C111.007194,11.0215827 110.935252,11.1798561 110.935252,11.381295 L110.935252,13.4388489 C110.935252,13.6258993 111.007194,13.7985612 111.151079,13.942446 C111.294964,14.0863309 111.453237,14.1582734 111.654676,14.1582734 L113.956835,14.1582734 C114.143885,14.1582734 114.316547,14.0863309 114.460432,13.942446 C114.589928,13.8129496 114.676259,13.6402878 114.676259,13.4388489 L114.676259,11.352518 C114.676259,11.1654676 114.604317,10.9928058 114.460432,10.8489209 C114.330935,10.7194245 114.158273,10.647482 113.956835,10.647482 Z M128.776978,26.2877698 L121.841727,26.2877698 L128.57554,19.0071942 C128.647482,18.8920863 128.748201,18.7338129 128.820144,18.5755396 C128.892086,18.4172662 128.935252,18.2446043 128.935252,18.0863309 L128.935252,16.2589928 C128.935252,16.0719424 128.863309,15.8848921 128.719424,15.7553957 C128.589928,15.6258993 128.402878,15.5395683 128.215827,15.5395683 L118.129496,15.5395683 C117.942446,15.5395683 117.755396,15.6115108 117.625899,15.7553957 C117.496403,15.8848921 117.410072,16.057554 117.410072,16.2589928 L117.410072,18.0431655 C117.410072,18.2302158 117.482014,18.4172662 117.625899,18.5467626 C117.755396,18.676259 117.942446,18.7625899 118.129496,18.7625899 L124.244604,18.7625899 L117.510791,26.0431655 C117.395683,26.1582734 117.323741,26.2877698 117.23741,26.4316547 C117.165468,26.5611511 117.122302,26.7338129 117.122302,26.9496403 L117.122302,28.7769784 C117.122302,28.9640288 117.194245,29.1510791 117.338129,29.2805755 C117.467626,29.4100719 117.654676,29.4964029 117.841727,29.4964029 L128.776978,29.4964029 C128.964029,29.4964029 129.151079,29.4244604 129.280576,29.2805755 C129.410072,29.1510791 129.496403,28.9784173 129.496403,28.7769784 L129.496403,26.9928058 C129.496403,26.8057554 129.42446,26.618705 129.280576,26.4892086 C129.151079,26.3597122 128.978417,26.2877698 128.776978,26.2877698 Z M152.100719,15.3956835 L151.496403,15.3956835 C146.719424,15.3956835 145.899281,18.0431655 145.899281,20.9352518 L145.899281,28.7769784 C145.899281,28.9640288 145.971223,29.1510791 146.115108,29.2805755 C146.258993,29.4100719 146.431655,29.4964029 146.618705,29.4964029 L148.676259,29.4964029 C148.863309,29.4964029 149.05036,29.4244604 149.179856,29.2805755 C149.309353,29.1366906 149.395683,28.9640288 149.395683,28.7769784 L149.395683,21.4100719 C149.395683,19.8273381 150.028777,18.7338129 151.582734,18.7338129 L152.244604,18.7338129 C152.431655,18.7338129 152.618705,18.6618705 152.748201,18.5179856 C152.877698,18.3884892 152.964029,18.2014388 152.964029,18.0143885 L152.964029,16.2302158 C152.94964,15.6690647 152.604317,15.4388489 152.100719,15.3956835 Z M88.5755396,15.4676259 C87.4532374,15.4676259 86.2014388,15.5395683 84.9784173,15.5971223 C84.1438849,15.3669065 83.2517986,15.2517986 82.3309353,15.2517986 C78.647482,15.2517986 75.8417266,17.1798561 75.8417266,21.7553957 C75.8417266,23.2805755 76.1870504,24.4892086 76.8057554,25.4244604 C75.5683453,26.676259 75.352518,28.9064748 77.0791367,30.4892086 C78.1438849,31.4676259 80.1151079,31.971223 83.2086331,32.3309353 C86.618705,32.7338129 86.5611511,34.3309353 85.4532374,35.0071942 C84.057554,35.8561151 81.3669065,35.7841727 80.1726619,35.1798561 C79.294964,34.7338129 79.1079137,33.942446 79.7122302,33.3956835 C79.8992806,33.2230216 79.8417266,33.0359712 79.5827338,32.9496403 C79.1223022,32.8201439 78.2302158,32.5899281 77.7985612,32.4892086 C77.2805755,32.3597122 77.1942446,32.4892086 76.7769784,32.8776978 C75.7122302,33.8417266 75.8417266,35.9568345 77.3381295,37.2230216 C78.7913669,38.4748201 80.5323741,38.8345324 82.7913669,38.8345324 C84.9784173,38.8345324 86.1151079,38.3021583 87.2086331,37.5971223 C88.5899281,36.7338129 89.1510791,35.6690647 89.1510791,33.8848921 C89.1510791,31.2230216 87.7985612,29.7410072 83.0935252,29.3093525 C81.0215827,29.1223022 79.8848921,28.7769784 79.2086331,28.1870504 C78.7625899,27.8273381 78.8633094,27.381295 79.0503597,27.323741 C80.1007194,27.8273381 81.3093525,28.0719424 82.618705,28.0719424 C86.3021583,28.0719424 89.1942446,26.7482014 89.1942446,21.7266187 C89.1942446,20.5179856 89.0071942,19.4964029 88.6330935,18.647482 C88.6906475,18.647482 88.7482014,18.647482 88.8057554,18.647482 C89.0359712,18.6618705 89.2086331,18.5323741 89.2086331,18.1870504 C89.2086331,17.7841727 89.2230216,16.3597122 89.2230216,16.0143885 C89.2086331,15.6690647 89.0359712,15.4676259 88.5755396,15.4676259 Z M82.4892086,25.2374101 C80.5467626,25.2374101 78.9928058,24.4316547 78.9928058,21.7553957 C78.9928058,18.9640288 80.5611511,18.2733813 82.4892086,18.2733813 C84.4172662,18.2733813 85.9856115,18.9064748 85.9856115,21.7553957 C86,24.6618705 84.4316547,25.2374101 82.4892086,25.2374101 Z" id="Shape" fill="#465056"></path>
                        <path d="M19.971223,0 L5.16546763,0 C2.23021583,0 0,2.17266187 0,5.15107914 L0,34.8489209 C0,37.7122302 2.47482014,40 5.16546763,40 C13.294964,40 18,34.1582734 18.5323741,30.3309353 C18.5467626,30.1870504 18.6043165,29.9136691 18.2589928,29.8417266 C14,28.9784173 9.92805755,25.6115108 9.92805755,19.971223 C9.92805755,14.4748201 14.4460432,9.95683453 19.942446,9.95683453 C25.7985612,9.95683453 29.6258993,13.5971223 30.5179856,19.942446 C31.3956835,26.2014388 28.8489209,34.8201439 19.942446,39.4244604 C19.5827338,39.6115108 19.5251799,40 19.971223,40 C30.7769784,39.942446 40,31.2230216 40,19.9856115 C40,9.55395683 31.8992806,0 19.971223,0" id="Fill-1-Copy-4" fill="url(#radialGradient-1)"></path>
                    </g>
                </g>
            </g>
        </g>
    </g>
</svg>